<?xml version="1.0" encoding="utf-8"?>
<!-- Generator: Adobe Illustrator 26.3.1, SVG Export Plug-In . SVG Version: 6.00 Build 0)  -->
<svg version="1.1" id="Layer_1" xmlns="http://www.w3.org/2000/svg" xmlns:xlink="http://www.w3.org/1999/xlink" x="0px" y="0px"
	 viewBox="0 0 361 95" style="enable-background:new 0 0 361 95;" xml:space="preserve">
<g>
	<g>
		<path d="M104.6,37.6L62.3,0h42.3V37.6z M104.6,56.4L62.3,94h42.3V56.4z M52.9,0c-1.6,0-2,0-3.5,0C17.8,0,0,22.5,0,47
			c0,24.5,17.8,47,49.4,47c1.6,0,1.9,0,3.5,0V0z"/>
	</g>
	<path d="M183.3,36.5c-2.1,2.2-6.5,5.6-14.9,5.6c-12.1,0-21.7-8-21.7-21.3c0-13.3,9.6-21.3,21.7-21.3c8.5,0,13.1,3.5,14.2,4.7l-3,8
		c-0.8-1-5.2-4.3-10.7-4.3c-7,0-12.4,4.7-12.4,12.7s5.6,12.7,12.4,12.7c5.1,0,8.9-2,11.1-4.4L183.3,36.5z"/>
	<path d="M217.5,36.5c-3.4,2.9-8.7,4.9-15.9,4.9h-14V0.1h14c7.2,0,12.5,2,15.9,5c3.5,2.9,6.7,7.7,6.7,15.7
		C224.2,28.8,221,33.6,217.5,36.5z M210.7,11.1c-1.7-1.6-4.6-2.9-8.6-2.9h-4.9v25.1h4.9c4,0,6.9-1.3,8.6-3c1.7-1.6,3.7-4.4,3.7-9.5
		S212.5,12.7,210.7,11.1z"/>
	<path d="M253.9,23c-2.8,2.3-6.5,3.1-10.8,3.1H238v15.3h-9.7V0.1h14.8c4.3,0,8,0.8,10.8,3.1c2.8,2.3,4.3,5.4,4.3,9.9
		C258.2,17.5,256.6,20.7,253.9,23z M246.4,8.7c-1.2-0.8-2.6-1.1-4.7-1.1H238v11.1h3.8c2.1,0,3.5-0.3,4.7-1.1c1.1-0.8,2-2.3,2-4.4
		C248.4,11,247.5,9.6,246.4,8.7z"/>
	<path d="M183.5,88.5c-2.6,2.9-7.2,6.1-15.1,6.1c-12,0-21.1-8.4-21.1-21.3S156.6,52,168.4,52c7.7,0,12.4,3.2,14.7,5.4l-2.5,4.7
		c-1.6-2-6.2-5-12-5c-8.9,0-15.4,6.4-15.4,16.1s6.5,16.1,15.4,16.1c5.4,0,9.6-2.1,12.3-5L183.5,88.5z"/>
	<path d="M212.9,81h-21.9c0.3,5.6,3.9,9,9.2,9c5.3,0,8.7-2.9,9.4-3.3l2.4,3.3c-0.4,0.3-4,4.5-12.5,4.5c-8.4,0-14.2-5.9-14.2-14.9
		c0-9,6.5-14.7,14.4-14.7c7.9,0,13.5,5.6,13.5,13.6C213,79.6,212.9,81,212.9,81z M207.6,77.2c-0.1-3.2-2.5-8.1-8.2-8.1
		c-5.7,0-8.2,4.7-8.4,8.1H207.6z"/>
	<path d="M232.4,70.7h-0.2c-0.5-0.2-1.6-0.6-3.1-0.6c-2.5,0-4.1,1.6-4.7,2.4c-0.5,0.8-1.7,3-1.7,7.2v14.2h-5.7V65.4h5.7l-0.1,4.4
		h0.2c1.4-3.2,3.9-4.9,7-4.9c1.9,0,3,0.5,3,0.5L232.4,70.7z"/>
	<path d="M252.6,93.6c0,0-2.2,1-5.2,1c-3,0-4.9-1.1-6-2.9c-1.2-1.8-1.4-4-1.4-8.5v-13h-4.2v-4.6h4.2V57h5.7v8.5h6.8v4.6h-6.8V83
		c0,2.4,0.1,4,0.7,5.2c0.5,0.9,1.3,1.4,2.9,1.4c1.7,0,2.9-0.7,2.9-0.7L252.6,93.6z"/>
	<path d="M259.9,59.6c-2.2,0-3.8-1.5-3.8-3.5c0-2,1.6-3.5,3.8-3.5c2.2,0,3.7,1.5,3.7,3.5C263.6,58.1,262.1,59.6,259.9,59.6z
		 M262.8,93.9h-5.7V65.4h5.7V93.9z"/>
	<path d="M291.6,59.6c-2.2,0-3.8-1.5-3.8-3.5c0-2,1.6-3.5,3.8-3.5c2.2,0,3.7,1.5,3.7,3.5C295.3,58.1,293.8,59.6,291.6,59.6z
		 M294.5,93.9h-5.7V65.4h5.7V93.9z"/>
	<path d="M284.5,56.8c0,0-1.4-0.5-3-0.5c-4.5,0-4.4,4.1-4.4,7.5v1.7h6.8v4.6h-6.8v23.8h-5.7V70.1h-4.1v-4.6h4.1v-2.9
		c0-3.7,0.5-6,1.9-7.6c1.4-1.6,3.3-3.1,7.1-3.1c2.4,0,4.5,0.7,4.5,0.7L284.5,56.8z"/>
	<path d="M326.8,81h-21.9c0.3,5.6,3.9,9,9.2,9c5.3,0,8.7-2.9,9.4-3.3l2.4,3.3c-0.4,0.3-4,4.5-12.5,4.5c-8.4,0-14.2-5.9-14.2-14.9
		c0-9,6.5-14.7,14.4-14.7c7.9,0,13.5,5.6,13.5,13.6C327,79.6,326.8,81,326.8,81z M321.6,77.2c-0.1-3.2-2.5-8.1-8.2-8.1
		c-5.7,0-8.2,4.7-8.4,8.1H321.6z"/>
	<path d="M360.2,93.9h-5.5v-4.6h-0.1c-2.3,3.5-5.9,5.2-10,5.2c-8.4,0-13.8-6.5-13.8-14.9c0-8.4,5.4-14.7,13.7-14.7c4.6,0,8,2,9.9,5
		h0.1V52.6h5.7V93.9z M345.7,69.6c-5.7,0-9,4.3-9,10c0,5.7,3.4,10.1,9,10.1c5.7,0,9-4.4,9-10.1C354.7,73.9,351.4,69.6,345.7,69.6z"
		/>
	<path d="M267.1,1.6h-3.9V0.4h9.2v1.2h-3.9v11.7h-1.4V1.6z M284.3,2.4h-0.1l-3.8,10.9h-1l-3.8-10.9h-0.1l-0.9,10.9h-1.3l1.2-12.9
		h1.8l3.7,10.7h0.1l3.6-10.7h1.8l1.2,12.9h-1.3L284.3,2.4z"/>
</g>
</svg>
